<svg xmlns="http://www.w3.org/2000/svg" viewBox="0 0 24 24" width="24" height="24" fill="currentColor">
  <path
    d="M9.464 1.286C10.294.803 11.092.5 12 .5c.908 0 1.707.303 2.537.786.795.462 1.7 1.142 2.815 1.977l2.232 1.675c1.391 1.042 2.359 1.766 2.888 2.826.53 1.059.53 2.268.528 4.006v4.3c0 1.355 0 2.471-.119 3.355-.124.928-.396 1.747-1.052 2.403-.657.657-1.476.928-2.404 1.053-.884.119-2 .119-3.354.119H7.93c-1.354 0-2.471 0-3.355-.119-.928-.125-1.747-.396-2.403-1.053-.656-.656-.928-1.475-1.053-2.403C1 18.541 1 17.425 1 16.07v-4.3c0-1.738-.002-2.947.528-4.006.53-1.06 1.497-1.784 2.888-2.826L6.65 3.263c1.114-.835 2.02-1.515 2.815-1.977zM10.5 13A1.5 1.5 0 0 0 9 14.5V21h6v-6.5a1.5 1.5 0 0 0-1.5-1.5h-3z"></path>
</svg>
