<svg viewBox="0 0 24 24" width="24" height="24" fill="currentColor">
  <path
    d="M1.588 3.227A3.125 3.125 0 0 1 4.58 1h14.84c1.38 0 2.597.905 2.993 2.227l.816 2.719a6.47 6.47 0 0 1 .272 1.854A5.183 5.183 0 0 1 22 11.455v4.615c0 1.355 0 2.471-.119 3.355-.125.928-.396 1.747-1.053 2.403-.656.657-1.475.928-2.403 1.053-.884.12-2 .119-3.354.119H8.929c-1.354 0-2.47 0-3.354-.119-.928-.125-1.747-.396-2.403-1.053-.657-.656-.929-1.475-1.053-2.403-.12-.884-.119-2-.119-3.354V11.5l.001-.045A5.184 5.184 0 0 1 .5 7.8c0-.628.092-1.252.272-1.854l.816-2.719zM10 21h4v-3.5a.5.5 0 0 0-.5-.5h-3a.5.5 0 0 0-.5.5V21zm6-.002c.918-.005 1.608-.025 2.159-.099.706-.095 1.033-.262 1.255-.485.223-.222.39-.55.485-1.255.099-.735.101-1.716.101-3.159v-3.284a5.195 5.195 0 0 1-1.7.284 5.18 5.18 0 0 1-3.15-1.062A5.18 5.18 0 0 1 12 13a5.18 5.18 0 0 1-3.15-1.062A5.18 5.18 0 0 1 5.7 13a5.2 5.2 0 0 1-1.7-.284V16c0 1.442.002 2.424.1 3.159.096.706.263 1.033.486 1.255.222.223.55.39 1.255.485.551.074 1.24.094 2.159.1V17.5a2.5 2.5 0 0 1 2.5-2.5h3a2.5 2.5 0 0 1 2.5 2.5v3.498zM4.581 3c-.497 0-.935.326-1.078.802l-.815 2.72A4.45 4.45 0 0 0 2.5 7.8a3.2 3.2 0 0 0 5.6 2.117 1 1 0 0 1 1.5 0A3.19 3.19 0 0 0 12 11a3.19 3.19 0 0 0 2.4-1.083 1 1 0 0 1 1.5 0A3.2 3.2 0 0 0 21.5 7.8c0-.434-.063-.865-.188-1.28l-.816-2.72A1.125 1.125 0 0 0 19.42 3H4.58z"></path>
</svg>
