<svg xmlns="http://www.w3.org/2000/svg" viewBox="0 0 24 24" width="20" height="20" fill="currentColor"
  class="x19dipnz x1lliihq x1k90msu x2h7rmj x1qfuztq" style="--color:var(--primary-icon)">
  <path
    d="M12 1a3 3 0 1 0 0 6 3 3 0 0 0 0-6zM4 9a3 3 0 1 0 0 6 3 3 0 0 0 0-6zm8 0a3 3 0 1 0 0 6 3 3 0 0 0 0-6zm8 0a3 3 0 1 0 0 6 3 3 0 0 0 0-6zm0-8a3 3 0 1 0 0 6 3 3 0 0 0 0-6zM4 1a3 3 0 1 0 0 6 3 3 0 0 0 0-6zm8 16a3 3 0 1 0 0 6 3 3 0 0 0 0-6zm8 0a3 3 0 1 0 0 6 3 3 0 0 0 0-6zM4 17a3 3 0 1 0 0 6 3 3 0 0 0 0-6z"></path>
</svg>
