<svg viewBox="0 0 24 24" width="24" height="24" fill="currentColor">
  <path d="M10.996 8.132A1 1 0 0 0 9.5 9v4a1 1 0 0 0 1.496.868l3.5-2a1 1 0 0 0 0-1.736l-3.5-2z"></path>
  <path
    d="M14.573 2H9.427c-1.824 0-3.293 0-4.45.155-1.2.162-2.21.507-3.013 1.31C1.162 4.266.817 5.277.655 6.477.5 7.634.5 9.103.5 10.927v.146c0 1.824 0 3.293.155 4.45.162 1.2.507 2.21 1.31 3.012.802.803 1.813 1.148 3.013 1.31C6.134 20 7.603 20 9.427 20h5.146c1.824 0 3.293 0 4.45-.155 1.2-.162 2.21-.507 3.012-1.31.803-.802 1.148-1.813 1.31-3.013.155-1.156.155-2.625.155-4.449v-.146c0-1.824 0-3.293-.155-4.45-.162-1.2-.507-2.21-1.31-3.013-.802-.802-1.813-1.147-3.013-1.309C17.866 2 16.397 2 14.573 2zM3.38 4.879c.369-.37.887-.61 1.865-.741C6.251 4.002 7.586 4 9.5 4h5c1.914 0 3.249.002 4.256.138.978.131 1.496.372 1.865.74.37.37.61.888.742 1.866.135 1.007.137 2.342.137 4.256 0 1.914-.002 3.249-.137 4.256-.132.978-.373 1.496-.742 1.865-.369.37-.887.61-1.865.742-1.007.135-2.342.137-4.256.137h-5c-1.914 0-3.249-.002-4.256-.137-.978-.132-1.496-.373-1.865-.742-.37-.369-.61-.887-.741-1.865C2.502 14.249 2.5 12.914 2.5 11c0-1.914.002-3.249.138-4.256.131-.978.372-1.496.74-1.865zM8 21.5a1 1 0 1 0 0 2h8a1 1 0 1 0 0-2H8z"></path>
</svg>
